<svg width="15" height="15" viewBox="0 0 15 15" fill="none" xmlns="http://www.w3.org/2000/svg">
<path fill-rule="evenodd" clip-rule="evenodd" d="M14.2165 1.1603C14.443 0.813531 14.3456 0.348764 13.9988 0.122211C13.6521 -0.104342 13.1873 -0.0068905 12.9607 0.339875L9.67211 5.3735L7.04716 9.39129L4.43488 4.91757C4.22601 4.55988 3.76672 4.43922 3.40902 4.64809C3.05133 4.85696 2.93067 5.31625 3.13954 5.67394L6.36369 11.1955L6.97555 12.2434L7.63923 11.2275L10.9279 6.19392L14.2165 1.1603ZM13.8492 8.44367C14.0058 7.55617 13.9647 6.65347 13.7371 5.79464C13.6264 5.37709 13.4717 4.9699 13.2742 4.57987C13.2641 4.56003 13.2554 4.53979 13.2479 4.51927C13.1627 4.28405 13.2476 4.01194 13.4718 3.88128C13.7102 3.74228 14.017 3.81573 14.1427 4.05608C14.1549 4.07932 14.1669 4.10262 14.1788 4.12597C14.3941 4.54883 14.5659 4.98921 14.693 5.44065C14.9808 6.46356 15.039 7.54322 14.8529 8.6043L14.8516 8.61208C14.5484 10.3299 13.6252 11.8852 12.2489 12.9966L12.2387 13.0048C10.8641 14.1109 9.12973 14.7019 7.34806 14.6712L7.33621 14.671C5.5575 14.6376 3.84903 13.9867 2.51781 12.835L2.51077 12.8289C1.17931 11.6741 0.31396 10.0936 0.0703296 8.37206L0.0682932 8.35756C-0.17252 6.63034 0.2281 4.87602 1.19772 3.412L1.20048 3.40784C2.17014 1.94593 3.64361 0.870444 5.35475 0.375628L5.37045 0.371106C6.42863 0.0675657 7.53416 -0.00163713 8.60871 0.158392C9.08108 0.22874 9.54747 0.343387 10.0012 0.5019C10.0251 0.510255 10.049 0.518732 10.0728 0.527331C10.332 0.620801 10.443 0.914533 10.3282 1.16468C10.2227 1.39469 9.96312 1.50752 9.71972 1.45358C9.69842 1.44886 9.67725 1.44287 9.65632 1.43556C9.2375 1.2894 8.80621 1.1865 8.36949 1.12729C7.46348 1.00446 6.53403 1.06973 5.64374 1.32718L5.62805 1.33174C4.15486 1.76171 2.88678 2.6902 2.05196 3.95068L2.04921 3.95484C1.21614 5.21486 0.870515 6.72323 1.07411 8.20926L1.07611 8.22376C1.28376 9.71308 2.02979 11.081 3.17944 12.081L3.18647 12.0871C4.34011 13.0877 5.82276 13.6523 7.36601 13.6789L7.37786 13.6791C8.91693 13.7028 10.4144 13.1898 11.6005 12.232L11.6107 12.2237C12.7921 11.2657 13.5853 9.92837 13.8478 8.45145L13.8492 8.44367Z" fill="url(#paint0_linear_878_9854)"/>
<defs>
<linearGradient id="paint0_linear_878_9854" x1="7.48003" y1="0" x2="7.48003" y2="14.6723" gradientUnits="userSpaceOnUse">
<stop stop-color="#715641"/>
<stop offset="0.14" stop-color="#95633C"/>
<stop offset="0.3" stop-color="#9E6940"/>
<stop offset="0.44" stop-color="#AD7A52"/>
<stop offset="0.6" stop-color="#BF8A60"/>
<stop offset="0.75" stop-color="#C28E66"/>
<stop offset="0.9" stop-color="#CD9B75"/>
<stop offset="1" stop-color="#D7A47C"/>
</linearGradient>
</defs>
</svg>
