<svg width="80" height="95" viewBox="0 0 80 95" fill="none" xmlns="http://www.w3.org/2000/svg">
<path fill-rule="evenodd" clip-rule="evenodd" d="M5 3H74.1663C75.2709 3 76.1663 3.89543 76.1663 5V86.9996C76.1663 88.1042 75.2709 88.9996 74.1663 88.9996H5C3.89543 88.9996 3 88.1042 3 86.9996V5C3 3.89543 3.89543 3 5 3ZM0 5C0 2.23858 2.23858 0 5 0H74.1663C76.9277 0 79.1663 2.23858 79.1663 5V86.9996C79.1663 89.4036 77.4697 91.4114 75.2085 91.8908V94.9998H70.2606V91.9996H8.90639V94.9998H3.9585V91.891C1.69697 91.4118 0 89.4039 0 86.9996V5ZM33.8404 17.8896C33.8967 17.3831 34.3247 17 34.8343 17H42.6248C43.1343 17 43.5624 17.3831 43.6187 17.8896L44.1205 22.4062C45.6794 22.7992 47.1668 23.3719 48.5594 24.1012L52.0401 21.3166C52.438 20.9982 53.0116 21.03 53.3719 21.3903L58.8807 26.899C59.241 27.2593 59.2727 27.8329 58.9544 28.2308L56.4206 31.3982C57.2186 32.6792 57.8783 34.0553 58.3787 35.5057L63.3883 36.0623C63.8947 36.1186 64.2778 36.5466 64.2778 37.0562V44.8467C64.2778 45.3562 63.8947 45.7843 63.3883 45.8406L59.0589 46.3216C58.6594 48.2391 57.9902 50.0576 57.0928 51.7357L59.7532 55.0612C60.0715 55.4591 60.0398 56.0327 59.6795 56.393L54.1707 61.9018C53.8104 62.2621 53.2368 62.2938 52.8389 61.9755L49.7611 59.5132C48.0083 60.5888 46.0801 61.4064 44.0295 61.9132L43.6187 65.6104C43.5624 66.1169 43.1343 66.5 42.6248 66.5H34.8343C34.3247 66.5 33.8967 66.1169 33.8404 65.6104L33.405 61.6916C31.615 61.1683 29.9272 60.4057 28.3785 59.4409L25.2102 61.9755C24.8123 62.2938 24.2387 62.2621 23.8784 61.9018L18.3697 56.393C18.0094 56.0327 17.9776 55.4591 18.2959 55.0612L21.0812 51.5797C20.2112 49.9185 19.5639 48.1223 19.1789 46.2307L15.6674 45.8406C15.161 45.7843 14.7778 45.3562 14.7778 44.8467V37.0562C14.7778 36.5466 15.161 36.1186 15.6674 36.0623L19.8462 35.598C20.3317 34.1684 20.9718 32.8102 21.7464 31.5432L19.0957 28.2298C18.7774 27.8319 18.8092 27.2583 19.1695 26.898L24.6782 21.3893C25.0385 21.029 25.6121 20.9972 26.01 21.3156L29.5736 24.1664C30.7556 23.537 32.0071 23.0208 33.3134 22.6321L33.8404 17.8896ZM36.5342 59.3146C29.0267 58.1897 23.0917 52.257 21.9633 44.7506V39.5461C23.2189 31.1936 30.4257 24.7896 39.1282 24.7896C48.7152 24.7896 56.487 32.5614 56.487 42.1483C56.487 50.8538 50.0788 58.0624 41.7223 59.3146H36.5342ZM33.4624 39.5064H33.9046L33.9046 37.5745C34.0366 35.9141 34.301 35.0819 34.8528 34.203C35.4046 33.3242 36.0596 32.6271 36.7805 32.1514C37.5015 31.6758 38.2742 31.431 39.0545 31.431C39.8348 31.431 40.6075 31.6758 41.3284 32.1514C42.0493 32.6271 42.7044 33.3242 43.2562 34.203C43.808 35.0819 44.0722 35.7481 44.2042 37.2424V39.5064H44.6474H47.1474V42.0064V44.8896C46.9399 47.0918 46.5247 48.0736 45.6577 49.3687C44.7906 50.6638 43.7612 51.6912 42.6283 52.3921C41.4954 53.093 40.2812 53.4538 39.055 53.4538C37.8288 53.4538 36.6146 53.093 35.4817 52.3921C34.3488 51.6912 33.3194 50.6638 32.4523 49.3687C31.5853 48.0736 31.1698 46.8471 30.9623 44.4002L30.9624 39.5064H33.4624ZM35.9046 37.6559L35.9046 39.5064H39.055H42.2042V39.5015V39.4923V39.4831V39.4738V39.4646V39.4554V39.4461V39.4369V39.4277V39.4184V39.4092V39.4V39.3907V39.3815V39.3723V39.363V39.3538V39.3446V39.3353V39.3261V39.3168V39.3076V39.2984V39.2891V39.2799V39.2707V39.2614V39.2522V39.2429V39.2337V39.2245V39.2152V39.206V39.1968V39.1875V39.1783V39.1691V39.1598V39.1506V39.1414V39.1321V39.1229V39.1137V39.1045V39.0952V39.086V39.0768V39.0676V39.0584V39.0492V39.0399V39.0307V39.0215V39.0123V39.0031V38.9939V38.9847V38.9755V38.9663V38.9571V38.9479V38.9387V38.9295V38.9203V38.9111V38.9019V38.8927V38.8836V38.8744V38.8652V38.856V38.8469V38.8377V38.8285V38.8194V38.8102V38.801V38.7919V38.7827V38.7736V38.7644V38.7553V38.7462V38.737V38.7279V38.7188V38.7096V38.7005V38.6914V38.6823V38.6732V38.664V38.6549V38.6458V38.6367V38.6276V38.6186V38.6095V38.6004V38.5913V38.5822V38.5732V38.5641V38.555V38.546V38.5369V38.5279V38.5188V38.5098V38.5008V38.4917V38.4827V38.4737V38.4647V38.4557V38.4467V38.4377V38.4287V38.4197V38.4107V38.4017V38.3927V38.3838V38.3748V38.3658V38.3569V38.3479V38.339V38.33V38.3211V38.3122V38.3033V38.2943V38.2854V38.2765V38.2676V38.2587V38.2499V38.241V38.2321V38.2232V38.2144V38.2055V38.1967V38.1878V38.179V38.1702V38.1613V38.1525V38.1437V38.1349V38.1261V38.1173V38.1085V38.0998V38.091V38.0822V38.0735V38.0647V38.056V38.0473V38.0385V38.0298V38.0211V38.0124V38.0037V37.995V37.9863V37.9776V37.969V37.9603V37.9517V37.943V37.9344V37.9258V37.9171V37.9085V37.8999V37.8913V37.8828V37.8742V37.8656V37.857V37.8485V37.8399V37.8314V37.8229V37.8144V37.8058V37.7973V37.7888V37.7804V37.7719V37.7634V37.755V37.7465V37.7381V37.7296V37.7212V37.7128V37.7044V37.696V37.6876V37.6793V37.6709V37.6625V37.6542V37.6458V37.6375V37.6292V37.6209V37.6126V37.6043V37.596V37.5878V37.5795V37.5713V37.563V37.5548V37.5466V37.5384V37.5302V37.522V37.5138V37.5056V37.4975V37.4893V37.4812V37.4731V37.465V37.4569V37.4488V37.4407V37.4326V37.4246V37.4165V37.4085V37.4005V37.3925V37.3845V37.3765V37.3685V37.3605V37.3526V37.3446V37.3367V37.3336C42.1465 36.7238 42.0701 36.3687 41.9867 36.1138C41.9042 35.8614 41.7895 35.6282 41.5623 35.2665C41.1324 34.5817 40.6664 34.1107 40.227 33.8209C39.7967 33.5369 39.4019 33.431 39.0545 33.431C38.707 33.431 38.3123 33.5369 37.8819 33.8209C37.4426 34.1107 36.9766 34.5817 36.5466 35.2665C36.2247 35.7792 36.0214 36.2608 35.9046 37.6559ZM44.6474 42.0078V42.0064H39.055H33.4624L33.4623 44.292C33.6479 46.3823 33.9761 47.1508 34.5298 47.9779C35.2317 49.0263 36.015 49.7823 36.797 50.2661C37.5702 50.7445 38.3334 50.9538 39.055 50.9538C39.7766 50.9538 40.5398 50.7445 41.313 50.2661C42.095 49.7823 42.8783 49.0263 43.5802 47.9779C43.9492 47.4268 44.147 47.0541 44.2894 46.6459C44.4317 46.2379 44.5554 45.687 44.6474 44.7686V44.7639V44.7525V44.7412V44.7298V44.7185V44.7071V44.6958V44.6845V44.6731V44.6618V44.6505V44.6392V44.6279V44.6166V44.6054V44.5941V44.5828V44.5716V44.5604V44.5491V44.5379V44.5267V44.5155V44.5042V44.493V44.4819V44.4707V44.4595V44.4483V44.4372V44.426V44.4149V44.4037V44.3926V44.3815V44.3703V44.3592V44.3481V44.337V44.3259V44.3148V44.3038V44.2927V44.2816V44.2706V44.2595V44.2485V44.2375V44.2264V44.2154V44.2044V44.1934V44.1824V44.1714V44.1604V44.1494V44.1384V44.1275V44.1165V44.1055V44.0946V44.0836V44.0727V44.0618V44.0509V44.0399V44.029V44.0181V44.0072V43.9963V43.9854V43.9746V43.9637V43.9528V43.942V43.9311V43.9202V43.9094V43.8986V43.8877V43.8769V43.8661V43.8553V43.8445V43.8336V43.8229V43.8121V43.8013V43.7905V43.7797V43.769V43.7582V43.7474V43.7367V43.7259V43.7152V43.7044V43.6937V43.683V43.6723V43.6616V43.6508V43.6401V43.6294V43.6188V43.6081V43.5974V43.5867V43.576V43.5654V43.5547V43.544V43.5334V43.5227V43.5121V43.5015V43.4908V43.4802V43.4696V43.459V43.4483V43.4377V43.4271V43.4165V43.4059V43.3954V43.3848V43.3742V43.3636V43.353V43.3425V43.3319V43.3214V43.3108V43.3003V43.2897V43.2792V43.2686V43.2581V43.2476V43.2371V43.2265V43.216V43.2055V43.195V43.1845V43.174V43.1635V43.153V43.1425V43.1321V43.1216V43.1111V43.1006V43.0902V43.0797V43.0693V43.0588V43.0484V43.0379V43.0275V43.017V43.0066V42.9962V42.9857V42.9753V42.9649V42.9545V42.9441V42.9337V42.9233V42.9129V42.9025V42.8921V42.8817V42.8713V42.8609V42.8505V42.8401V42.8298V42.8194V42.809V42.7986V42.7883V42.7779V42.7676V42.7572V42.7469V42.7365V42.7262V42.7158V42.7055V42.6951V42.6848V42.6745V42.6642V42.6538V42.6435V42.6332V42.6229V42.6126V42.6022V42.5919V42.5816V42.5713V42.561V42.5507V42.5404V42.5301V42.5199V42.5096V42.4993V42.489V42.4787V42.4684V42.4582V42.4479V42.4376V42.4273V42.4171V42.4068V42.3965V42.3863V42.376V42.3658V42.3555V42.3452V42.335V42.3247V42.3145V42.3043V42.294V42.2838V42.2735V42.2633V42.253V42.2428V42.2326V42.2223V42.2121V42.2019V42.1917V42.1814V42.1712V42.161V42.1508V42.1405V42.1303V42.1201V42.1099V42.0997V42.0895V42.0793V42.069V42.0588V42.0486V42.0384V42.0282V42.018V42.0078ZM40.0503 43.9898C40.0503 43.5756 39.7145 43.2398 39.3003 43.2398C38.8861 43.2398 38.5503 43.5756 38.5503 43.9898V48.4729C38.5503 48.8871 38.8861 49.2229 39.3003 49.2229C39.7145 49.2229 40.0503 48.8871 40.0503 48.4729V43.9898Z" fill="url(#paint0_linear_1001_2359)"/>
<defs>
<linearGradient id="paint0_linear_1001_2359" x1="39.5832" y1="0" x2="39.5832" y2="94.9998" gradientUnits="userSpaceOnUse">
<stop stop-color="#715641"/>
<stop offset="0.14" stop-color="#95633C"/>
<stop offset="0.3" stop-color="#9E6940"/>
<stop offset="0.44" stop-color="#AD7A52"/>
<stop offset="0.6" stop-color="#BF8A60"/>
<stop offset="0.75" stop-color="#C28E66"/>
<stop offset="0.9" stop-color="#CD9B75"/>
<stop offset="1" stop-color="#D7A47C"/>
</linearGradient>
</defs>
</svg>
