<svg width="124" height="98" viewBox="0 0 124 98" fill="none" xmlns="http://www.w3.org/2000/svg">
<path d="M70.4592 47.9995C70.5645 47.5267 71.2133 47.4649 71.406 47.9093L74.9832 56.1581C75.4141 57.1518 76.4358 57.755 77.514 57.6522L86.4646 56.7991C86.9468 56.7532 87.206 57.3511 86.843 57.6717L80.1032 63.6229C79.2913 64.3397 79.0334 65.4978 79.4643 66.4915L83.0415 74.7404C83.2342 75.1848 82.7457 75.6161 82.3286 75.3699L74.586 70.799C73.6534 70.2484 72.4722 70.361 71.6604 71.0779L64.9206 77.029C64.5575 77.3496 63.9963 77.0183 64.1016 76.5455L66.0562 67.7694C66.2916 66.7122 65.8196 65.6237 64.8869 65.0731L57.1443 60.5022C56.7272 60.256 56.8689 59.6199 57.3511 59.5739L66.3016 58.7209C67.3798 58.6181 68.2692 57.8328 68.5047 56.7756L70.4592 47.9995Z" stroke="url(#paint0_linear_1001_2317)" stroke-width="2"/>
<path d="M13.0107 75.726C13.1604 75.2653 13.8121 75.2653 13.9618 75.726L15.2262 79.6177C15.5609 80.6477 16.5208 81.3451 17.6039 81.3451H21.6959C22.1802 81.3451 22.3816 81.9649 21.9898 82.2496L18.6793 84.6548C17.8031 85.2914 17.4364 86.4199 17.7711 87.4499L19.0356 91.3416C19.1853 91.8023 18.658 92.1853 18.2662 91.9006L14.9557 89.4954C14.0795 88.8588 12.893 88.8588 12.0168 89.4954L8.70629 91.9006C8.31443 92.1853 7.78719 91.8023 7.93686 91.3416L9.20135 87.4499C9.53604 86.4199 9.16939 85.2914 8.29317 84.6548L4.9827 82.2496C4.59084 81.9649 4.79223 81.3451 5.27659 81.3451H9.36856C10.4516 81.3451 11.4115 80.6477 11.7462 79.6177L13.0107 75.726Z" stroke="url(#paint1_linear_1001_2317)" stroke-width="2"/>
<path d="M25.9079 79.9755L25.3202 80.7845L25.9079 79.9755L21.2763 76.6104C20.8844 76.3257 21.0858 75.7059 21.5702 75.7059H27.2952C28.3783 75.7059 29.3382 75.0085 29.6729 73.9784L31.442 68.5336C31.5917 68.0729 32.2434 68.0729 32.393 68.5336L34.1622 73.9784C34.4969 75.0085 35.4568 75.7059 36.5398 75.7059H42.2649C42.7492 75.7059 42.9506 76.3257 42.5587 76.6104L37.9271 79.9755C37.0509 80.6121 36.6842 81.7405 37.0189 82.7705L38.7881 88.2154C38.9377 88.676 38.4105 89.0591 38.0186 88.7744L33.387 85.4093C32.5108 84.7727 31.3243 84.7727 30.4481 85.4093L25.8164 88.7744C25.4246 89.0591 24.8973 88.676 25.047 88.2154L26.8161 82.7705C27.1508 81.7405 26.7842 80.6121 25.9079 79.9755Z" stroke="url(#paint2_linear_1001_2317)" stroke-width="2"/>
<path d="M49.8728 60.4418C50.0225 59.9811 50.6742 59.9811 50.8239 60.4418L53.0976 67.4397C53.4323 68.4698 54.3922 69.1672 55.4753 69.1672H62.8334C63.3177 69.1672 63.5191 69.787 63.1273 70.0717L57.1744 74.3967C56.2982 75.0333 55.9316 76.1617 56.2663 77.1918L58.54 84.1897C58.6897 84.6504 58.1625 85.0334 57.7706 84.7487L51.8178 80.4238C50.9416 79.7871 49.7551 79.7871 48.8789 80.4238L42.9261 84.7487C42.5342 85.0334 42.007 84.6504 42.1566 84.1897L44.4304 77.1918C44.7651 76.1617 44.3984 75.0333 43.5222 74.3967L42.9344 75.2057L43.5222 74.3967L37.5694 70.0717C37.1776 69.787 37.3789 69.1672 37.8633 69.1672H45.2214C46.3045 69.1672 47.2643 68.4698 47.599 67.4397L49.8728 60.4418Z" stroke="url(#paint3_linear_1001_2317)" stroke-width="2"/>
<path d="M88.8382 31.8877C88.8252 31.4035 89.4393 31.1855 89.7345 31.5695L96.2087 39.9932C96.8687 40.852 98.0066 41.1881 99.0272 40.8257L109.039 37.2715C109.496 37.1095 109.893 37.6262 109.619 38.0256L103.608 46.7859C102.995 47.679 103.027 48.865 103.687 49.7238L110.161 58.1475C110.457 58.5315 110.088 59.0689 109.623 58.9317L99.4343 55.9222C98.3956 55.6154 97.2775 56.0123 96.6647 56.9054L90.654 65.6658C90.3799 66.0651 89.7549 65.8805 89.7419 65.3964L89.4555 54.776C89.4263 53.6934 88.7032 52.7526 87.6645 52.4458L87.3813 53.4049L87.6645 52.4458L77.4755 49.4363C77.011 49.2991 76.9934 48.6477 77.4499 48.4856L87.4619 44.9314C88.4826 44.5691 89.1538 43.5907 89.1246 42.508L88.8382 31.8877Z" stroke="url(#paint4_linear_1001_2317)" stroke-width="2"/>
<path d="M75.821 20.2293C75.821 30.5733 67.4356 38.9587 57.0916 38.9587C46.7477 38.9587 38.3623 30.5733 38.3623 20.2293C38.3623 9.88541 46.7477 1.5 57.0916 1.5C67.4356 1.5 75.821 9.88541 75.821 20.2293Z" stroke="url(#paint5_linear_1001_2317)" stroke-width="3"/>
<path fill-rule="evenodd" clip-rule="evenodd" d="M75.7427 39.6961C73.429 42.4535 70.4806 45.1789 67.6874 46.7166C64.417 48.5169 60.8923 49.4531 57.3187 49.4531C53.745 49.4531 50.2203 48.5169 46.95 46.7166C44.2625 45.2372 41.3934 42.6543 39.1053 39.9981C30.2654 47.0748 22.7407 61.017 18.1302 75.3988C17.925 76.0391 17.2516 76.2891 16.6262 75.9574C16.0008 75.6257 15.6602 74.8378 15.8654 74.1976C20.6415 59.299 28.5853 44.5619 38.1653 37.292C38.4145 37.1029 38.7275 37.0563 39.032 37.134L39.6372 36.6786C41.9407 39.7399 45.2635 42.9344 48.1556 44.5265C51.0775 46.135 54.1898 46.9531 57.3187 46.9531C60.4475 46.9531 63.5598 46.135 66.4818 44.5265C69.1962 43.0323 72.2499 40.1243 74.5239 37.2324C74.5596 37.167 74.6004 37.1031 74.6461 37.0414C74.7057 36.961 74.7708 36.8884 74.8401 36.8238C74.8764 36.7761 74.9125 36.7284 74.9484 36.6807L74.9825 36.7064C75.4137 36.3939 75.9536 36.3622 76.3302 36.6713C78.909 38.7878 79.1214 38.9894 79.268 39.1532L79.2694 39.155C79.2808 39.1696 79.3246 39.2257 81.7194 41.1624C82.2061 41.5561 82.2415 42.3649 81.7984 42.969C81.3554 43.5731 80.6016 43.7438 80.1148 43.3501C77.7245 41.417 77.5895 41.2954 77.4391 41.1274L77.4377 41.1258C77.4212 41.1067 77.3443 41.0182 75.7427 39.6961Z" fill="url(#paint6_linear_1001_2317)"/>
<defs>
<linearGradient id="paint0_linear_1001_2317" x1="70.4867" y1="43.276" x2="74.3254" y2="83.5521" gradientUnits="userSpaceOnUse">
<stop stop-color="#715641"/>
<stop offset="0.14" stop-color="#95633C"/>
<stop offset="0.3" stop-color="#9E6940"/>
<stop offset="0.44" stop-color="#AD7A52"/>
<stop offset="0.6" stop-color="#BF8A60"/>
<stop offset="0.75" stop-color="#C28E66"/>
<stop offset="0.9" stop-color="#CD9B75"/>
<stop offset="1" stop-color="#D7A47C"/>
</linearGradient>
<linearGradient id="paint1_linear_1001_2317" x1="13.4862" y1="71.0264" x2="13.4862" y2="97.9988" gradientUnits="userSpaceOnUse">
<stop stop-color="#715641"/>
<stop offset="0.14" stop-color="#95633C"/>
<stop offset="0.3" stop-color="#9E6940"/>
<stop offset="0.44" stop-color="#AD7A52"/>
<stop offset="0.6" stop-color="#BF8A60"/>
<stop offset="0.75" stop-color="#C28E66"/>
<stop offset="0.9" stop-color="#CD9B75"/>
<stop offset="1" stop-color="#D7A47C"/>
</linearGradient>
<linearGradient id="paint2_linear_1001_2317" x1="31.9175" y1="63.834" x2="31.9175" y2="95.3018" gradientUnits="userSpaceOnUse">
<stop stop-color="#715641"/>
<stop offset="0.14" stop-color="#95633C"/>
<stop offset="0.3" stop-color="#9E6940"/>
<stop offset="0.44" stop-color="#AD7A52"/>
<stop offset="0.6" stop-color="#BF8A60"/>
<stop offset="0.75" stop-color="#C28E66"/>
<stop offset="0.9" stop-color="#CD9B75"/>
<stop offset="1" stop-color="#D7A47C"/>
</linearGradient>
<linearGradient id="paint3_linear_1001_2317" x1="50.3483" y1="55.7422" x2="50.3483" y2="91.7055" gradientUnits="userSpaceOnUse">
<stop stop-color="#715641"/>
<stop offset="0.14" stop-color="#95633C"/>
<stop offset="0.3" stop-color="#9E6940"/>
<stop offset="0.44" stop-color="#AD7A52"/>
<stop offset="0.6" stop-color="#BF8A60"/>
<stop offset="0.75" stop-color="#C28E66"/>
<stop offset="0.9" stop-color="#CD9B75"/>
<stop offset="1" stop-color="#D7A47C"/>
</linearGradient>
<linearGradient id="paint4_linear_1001_2317" x1="87.7142" y1="27.2998" x2="102.753" y2="69.6637" gradientUnits="userSpaceOnUse">
<stop stop-color="#715641"/>
<stop offset="0.14" stop-color="#95633C"/>
<stop offset="0.3" stop-color="#9E6940"/>
<stop offset="0.44" stop-color="#AD7A52"/>
<stop offset="0.6" stop-color="#BF8A60"/>
<stop offset="0.75" stop-color="#C28E66"/>
<stop offset="0.9" stop-color="#CD9B75"/>
<stop offset="1" stop-color="#D7A47C"/>
</linearGradient>
<linearGradient id="paint5_linear_1001_2317" x1="57.0916" y1="0" x2="57.0916" y2="40.4587" gradientUnits="userSpaceOnUse">
<stop stop-color="#715641"/>
<stop offset="0.14" stop-color="#95633C"/>
<stop offset="0.3" stop-color="#9E6940"/>
<stop offset="0.44" stop-color="#AD7A52"/>
<stop offset="0.6" stop-color="#BF8A60"/>
<stop offset="0.75" stop-color="#C28E66"/>
<stop offset="0.9" stop-color="#CD9B75"/>
<stop offset="1" stop-color="#D7A47C"/>
</linearGradient>
<linearGradient id="paint6_linear_1001_2317" x1="48.9573" y1="36.4551" x2="48.9573" y2="76.1041" gradientUnits="userSpaceOnUse">
<stop stop-color="#715641"/>
<stop offset="0.14" stop-color="#95633C"/>
<stop offset="0.3" stop-color="#9E6940"/>
<stop offset="0.44" stop-color="#AD7A52"/>
<stop offset="0.6" stop-color="#BF8A60"/>
<stop offset="0.75" stop-color="#C28E66"/>
<stop offset="0.9" stop-color="#CD9B75"/>
<stop offset="1" stop-color="#D7A47C"/>
</linearGradient>
</defs>
</svg>
