<svg width="45" height="46" viewBox="0 0 45 46" fill="none" xmlns="http://www.w3.org/2000/svg">
<mask id="path-1-inside-1_825_6078" fill="white">
<path d="M44.2857 22.8524C44.2857 35.4456 34.372 45.6544 22.1429 45.6544C9.91369 45.6544 0 35.4456 0 22.8524C0 10.2591 9.91369 0.050293 22.1429 0.050293C34.372 0.050293 44.2857 10.2591 44.2857 22.8524Z"/>
</mask>
<path d="M42.2857 22.8524C42.2857 34.3967 33.2125 43.6544 22.1429 43.6544V47.6544C35.5315 47.6544 46.2857 36.4944 46.2857 22.8524H42.2857ZM22.1429 43.6544C11.0732 43.6544 2 34.3967 2 22.8524H-2C-2 36.4944 8.75422 47.6544 22.1429 47.6544V43.6544ZM2 22.8524C2 11.308 11.0732 2.05029 22.1429 2.05029V-1.94971C8.75422 -1.94971 -2 9.21027 -2 22.8524H2ZM22.1429 2.05029C33.2125 2.05029 42.2857 11.308 42.2857 22.8524H46.2857C46.2857 9.21027 35.5315 -1.94971 22.1429 -1.94971V2.05029Z" fill="white" mask="url(#path-1-inside-1_825_6078)"/>
<path d="M11.6444 21.2519C11.6444 21.2519 20.4775 17.326 23.541 15.9436C24.7153 15.3907 28.6979 13.6213 28.6979 13.6213C28.6979 13.6213 30.536 12.8471 30.3828 14.7272C30.3318 15.5013 29.9233 18.2107 29.5148 21.1413C28.9021 25.2884 28.2384 29.8225 28.2384 29.8225C28.2384 29.8225 28.1363 31.0943 27.2683 31.3155C26.4003 31.5367 24.9706 30.5414 24.7153 30.3202C24.5111 30.1543 20.886 27.6661 19.5584 26.4496C19.201 26.1178 18.7926 25.4543 19.6095 24.6802C21.4476 22.8554 23.6431 20.5884 24.9706 19.1507C25.5833 18.4872 26.196 16.9389 23.6431 18.8189C20.018 21.5284 16.4439 24.0719 16.4439 24.0719C16.4439 24.0719 15.6269 24.6249 14.0952 24.1272C12.5634 23.6296 10.7764 22.966 10.7764 22.966C10.7764 22.966 9.55095 22.1366 11.6444 21.2519Z" fill="white"/>
</svg>
