<svg width="46" height="47" viewBox="0 0 46 47" fill="none" xmlns="http://www.w3.org/2000/svg">
<mask id="path-1-inside-1_825_6083" fill="white">
<path fill-rule="evenodd" clip-rule="evenodd" d="M22.7998 45.1527C35.2183 45.1527 45.2856 35.0449 45.2856 22.5763C45.2856 10.1078 35.2183 0 22.7998 0C10.3812 0 0.313965 10.1078 0.313965 22.5763C0.313965 27.7404 2.04081 32.4994 4.94636 36.3032L2.53639 46.0504L12.1164 42.4467C15.2943 44.1727 18.9331 45.1527 22.7998 45.1527Z"/>
</mask>
<path d="M4.94636 36.3032L6.8879 36.7832L7.11821 35.8517L6.53572 35.0892L4.94636 36.3032ZM2.53639 46.0504L0.59485 45.5704L-0.317599 49.2608L3.24055 47.9224L2.53639 46.0504ZM12.1164 42.4467L13.071 40.6892L12.2678 40.253L11.4123 40.5748L12.1164 42.4467ZM43.2856 22.5763C43.2856 33.9479 34.1062 43.1527 22.7998 43.1527V47.1527C36.3305 47.1527 47.2856 36.1419 47.2856 22.5763H43.2856ZM22.7998 2C34.1062 2 43.2856 11.2048 43.2856 22.5763H47.2856C47.2856 9.01079 36.3305 -2 22.7998 -2V2ZM2.31396 22.5763C2.31396 11.2048 11.4933 2 22.7998 2V-2C9.26906 -2 -1.68604 9.01079 -1.68604 22.5763H2.31396ZM6.53572 35.0892C3.88763 31.6224 2.31396 27.2872 2.31396 22.5763H-1.68604C-1.68604 28.1936 0.194002 33.3765 3.357 37.5173L6.53572 35.0892ZM4.47792 46.5305L6.8879 36.7832L3.00482 35.8232L0.59485 45.5704L4.47792 46.5305ZM11.4123 40.5748L1.83223 44.1785L3.24055 47.9224L12.8206 44.3187L11.4123 40.5748ZM22.7998 43.1527C19.275 43.1527 15.9634 42.2602 13.071 40.6892L11.1619 44.2043C14.6252 46.0853 18.5911 47.1527 22.7998 47.1527V43.1527Z" fill="white" mask="url(#path-1-inside-1_825_6083)"/>
<path d="M32.5412 27.8023C32.4171 27.5715 32.0667 27.4183 31.5441 27.1224C31.0205 26.8264 28.4471 25.3908 27.9656 25.1874C27.4826 24.9833 27.1285 24.8752 26.7446 25.3961C26.3607 25.9175 25.2723 27.0785 24.9409 27.4222C24.61 27.7669 24.2952 27.7963 23.7716 27.4998C23.249 27.2039 21.5491 26.5481 19.5909 24.6112C18.0673 23.104 17.0779 21.288 16.7916 20.7325C16.5058 20.1781 16.8001 19.9009 17.0814 19.6461C17.3351 19.4167 17.6495 19.044 17.9331 18.7432C18.2177 18.4419 18.318 18.2223 18.5137 17.8713C18.7113 17.521 18.6372 17.2022 18.5159 16.9253C18.3955 16.6495 17.4532 13.9455 17.0599 12.8445C16.6666 11.7446 16.2114 11.9017 15.8978 11.886C15.5853 11.8704 15.2294 11.8074 14.8718 11.7895C14.5141 11.7716 13.9259 11.8773 13.4073 12.3915C12.8892 12.9062 11.4391 14.14 11.3076 16.7899C11.1761 19.4402 12.9704 22.0969 13.2216 22.4692C13.4718 22.8415 16.6352 28.6291 21.9817 31.0585C27.3288 33.487 27.3645 32.7678 28.3527 32.7268C29.3399 32.6862 31.5904 31.5829 32.1016 30.3483C32.6098 29.1116 32.6633 28.0335 32.5412 27.8023Z" fill="white"/>
</svg>
